# Blender 4.4.3
# www.blender.org
o Pawn
v 0.000000 0.010227 0.614875
v 0.000000 0.191194 0.652129
v 0.000000 0.217080 0.599514
v -0.000000 0.421681 0.651237
v 0.000000 0.537969 0.463113
v 0.000000 0.655351 0.411770
v 0.000000 0.735339 0.409344
v 0.000000 -0.002278 0.596963
v 0.000000 0.261377 0.633314
v 0.000000 0.065920 0.646680
v -0.448458 0.010227 0.436272
v -0.627061 0.010227 -0.000000
v -0.459284 0.191194 0.460914
v -0.650499 0.191194 -0.000000
v -0.423905 0.217080 0.423920
v -0.599498 0.217080 -0.000000
v -0.481010 0.421681 0.462866
v -0.669381 0.421681 -0.000000
v -0.375378 0.537969 0.327470
v -0.503171 0.537969 -0.000000
v -0.427621 0.655350 -0.000000
v -0.308731 0.655351 0.291166
v -0.408134 0.735339 -0.000000
v -0.288933 0.735339 0.290144
v -0.608366 -0.002278 0.000000
v -0.435009 -0.002278 0.423606
v -0.209701 0.770640 0.222464
v -0.633298 0.261377 -0.000000
v -0.447805 0.261377 0.447821
v -0.644305 0.065920 -0.000000
v -0.456251 0.065920 0.458625
v -0.296214 0.770640 -0.000000
v 0.000000 0.770640 0.308977
v -0.151902 1.277274 0.165602
v -0.214569 1.277274 -0.000000
v -0.000000 1.277274 0.228270
v -0.239481 0.934164 -0.000000
v -0.169537 0.934164 0.184753
v -0.000000 0.934164 0.254696
v -0.218528 1.122385 -0.000000
v -0.000000 1.122385 0.233924
v -0.154704 1.122385 0.170101
v -0.307385 1.298848 0.304085
v -0.434198 1.298848 -0.000000
v 0.000000 1.298848 0.430898
v -0.307385 1.355068 0.304085
v -0.434198 1.355067 -0.000000
v 0.000000 1.355068 0.430898
v -0.167408 1.432207 0.187452
v -0.236472 1.432207 -0.000000
v 0.000000 1.432207 0.256516
v -0.280543 1.598252 0.287879
v -0.396283 1.598252 -0.000000
v 0.000000 1.598253 0.403618
v -0.081338 2.225827 0.083465
v -0.114895 2.225827 -0.000000
v 0.000000 2.225827 0.117021
v 0.448458 0.010227 0.436272
v 0.627061 0.010227 -0.000000
v 0.459284 0.191194 0.460914
v 0.650499 0.191194 -0.000000
v 0.423905 0.217080 0.423920
v 0.599498 0.217080 -0.000000
v 0.481010 0.421681 0.462866
v 0.669381 0.421681 -0.000000
v 0.375378 0.537969 0.327470
v 0.503171 0.537969 -0.000000
v 0.427621 0.655350 -0.000000
v 0.308731 0.655351 0.291166
v 0.408134 0.735339 -0.000000
v 0.288933 0.735339 0.290144
v 0.608366 -0.002278 0.000000
v 0.435009 -0.002278 0.423606
v 0.209701 0.770640 0.222464
v 0.633298 0.261377 -0.000000
v 0.447805 0.261377 0.447821
v 0.644305 0.065920 -0.000000
v 0.456251 0.065920 0.458625
v 0.296214 0.770640 -0.000000
v 0.151902 1.277274 0.165602
v 0.214569 1.277274 -0.000000
v 0.239481 0.934164 -0.000000
v 0.169537 0.934164 0.184753
v 0.218528 1.122385 -0.000000
v 0.154704 1.122385 0.170101
v 0.307385 1.298848 0.304085
v 0.434198 1.298848 -0.000000
v 0.307385 1.355068 0.304085
v 0.434198 1.355067 -0.000000
v 0.167408 1.432207 0.187452
v 0.236472 1.432207 -0.000000
v 0.280543 1.598252 0.287879
v 0.396283 1.598252 -0.000000
v 0.081338 2.225827 0.083465
v 0.114895 2.225827 -0.000000
v 0.000000 0.010227 -0.614875
v 0.000000 0.191194 -0.652129
v 0.000000 0.217080 -0.599514
v -0.000000 0.421681 -0.651237
v 0.000000 0.537969 -0.463113
v 0.000000 0.655350 -0.411771
v 0.000000 0.735339 -0.409345
v 0.000000 -0.002278 -0.596963
v 0.000000 0.261377 -0.633314
v 0.000000 0.065920 -0.646680
v -0.448458 0.010227 -0.436272
v -0.459284 0.191194 -0.460914
v -0.423905 0.217080 -0.423920
v -0.481010 0.421681 -0.462866
v -0.375378 0.537969 -0.327470
v -0.308731 0.655350 -0.291166
v -0.288933 0.735339 -0.290144
v -0.435009 -0.002278 -0.423606
v -0.209701 0.770640 -0.222464
v -0.447805 0.261377 -0.447821
v -0.456251 0.065920 -0.458625
v 0.000000 0.770640 -0.308977
v -0.151902 1.277274 -0.165603
v -0.000000 1.277274 -0.228270
v -0.169537 0.934163 -0.184753
v -0.000000 0.934163 -0.254696
v -0.000000 1.122385 -0.233925
v -0.154704 1.122385 -0.170101
v -0.307385 1.298848 -0.304086
v 0.000000 1.298847 -0.430898
v -0.307385 1.355068 -0.304086
v 0.000000 1.355067 -0.430898
v -0.167408 1.432207 -0.187452
v 0.000000 1.432207 -0.256517
v -0.280543 1.598252 -0.287879
v 0.000000 1.598252 -0.403618
v -0.081338 2.225827 -0.083466
v 0.000000 2.225827 -0.117022
v 0.448458 0.010227 -0.436272
v 0.459284 0.191194 -0.460914
v 0.423905 0.217080 -0.423920
v 0.481010 0.421681 -0.462866
v 0.375378 0.537969 -0.327470
v 0.308731 0.655350 -0.291166
v 0.288933 0.735339 -0.290144
v 0.435009 -0.002278 -0.423606
v 0.209701 0.770640 -0.222464
v 0.447805 0.261377 -0.447821
v 0.456251 0.065920 -0.458625
v 0.151902 1.277274 -0.165603
v 0.169537 0.934163 -0.184753
v 0.154704 1.122385 -0.170101
v 0.307385 1.298848 -0.304086
v 0.307385 1.355068 -0.304086
v 0.167408 1.432207 -0.187452
v 0.280543 1.598252 -0.287879
v 0.081338 2.225827 -0.083466
v -0.314790 1.941457 0.323021
v 0.000000 1.941457 0.452889
v -0.444658 1.941457 -0.000000
v 0.314790 1.941457 0.323021
v 0.444658 1.941457 -0.000000
v -0.314790 1.941457 -0.323022
v 0.000000 1.941457 -0.452889
v 0.314790 1.941457 -0.323022
v -0.316181 1.766586 0.324448
v 0.000000 1.766586 0.454890
v -0.446623 1.766586 -0.000000
v 0.316181 1.766586 0.324448
v 0.446623 1.766586 -0.000000
v -0.316181 1.766586 -0.324449
v 0.000000 1.766586 -0.454890
v 0.316181 1.766586 -0.324449
v -0.288271 2.057492 0.295809
v 0.000000 2.057492 0.414736
v -0.407199 2.057492 -0.000000
v 0.288271 2.057492 0.295809
v 0.407199 2.057492 -0.000000
v -0.288271 2.057492 -0.295809
v 0.000000 2.057492 -0.414736
v 0.288271 2.057492 -0.295809
v -0.197607 2.167472 0.202774
v 0.000000 2.167472 0.284298
v -0.279131 2.167472 -0.000000
v 0.197607 2.167472 0.202774
v 0.279131 2.167472 -0.000000
v -0.197607 2.167472 -0.202775
v 0.000000 2.167472 -0.284298
v 0.197607 2.167472 -0.202775
vn -0.3812 0.0337 0.9239
vn -0.4458 0.8758 0.1848
vn -0.9238 -0.0375 0.3810
vn -0.3701 -0.1329 0.9194
vn -0.9039 -0.2128 0.3711
vn -0.3825 -0.0331 0.9234
vn -0.5657 0.7929 0.2263
vn -0.1816 0.8808 0.4372
vn -0.3054 0.9443 0.1226
vn -0.7895 0.5269 0.3148
vn -0.1998 0.8253 0.5281
vn -0.3390 -0.4304 0.8365
vn -0.9019 0.2238 0.3694
vn -0.3200 0.4098 0.8542
vn -0.3716 0.0659 0.9261
vn -0.5427 -0.8100 0.2221
vn -0.7551 -0.5762 0.3128
vn -0.2219 -0.8003 0.5570
vn -0.3128 -0.5762 0.7551
vn -0.8901 -0.2733 0.3647
vn -0.3646 0.2934 0.8837
vn -0.9355 0.0255 0.3525
vn -0.8896 0.3030 0.3418
vn -0.3794 0.1015 0.9196
vn -0.9308 0.1021 0.3509
vn -0.0436 -0.9934 0.1058
vn -0.3814 -0.0000 0.9244
vn -0.0995 -0.9942 0.0402
vn -0.1646 0.9020 0.3990
vn -0.9230 -0.0000 0.3849
vn -0.2951 -0.6336 0.7152
vn -0.3686 0.9179 0.1469
vn -0.1347 0.9356 0.3264
vn -0.7012 -0.6588 0.2726
vn 0.1356 0.9346 0.3287
vn -0.3318 0.9339 0.1334
vn 0.3812 0.0337 0.9239
vn 0.4458 0.8758 0.1848
vn 0.9238 -0.0375 0.3810
vn 0.3701 -0.1329 0.9194
vn 0.9039 -0.2128 0.3711
vn 0.3825 -0.0331 0.9234
vn 0.5657 0.7929 0.2263
vn 0.1816 0.8808 0.4372
vn 0.3054 0.9443 0.1226
vn 0.7895 0.5269 0.3148
vn 0.1998 0.8253 0.5281
vn 0.3390 -0.4304 0.8365
vn 0.9019 0.2238 0.3694
vn 0.3200 0.4098 0.8542
vn 0.3716 0.0659 0.9261
vn 0.5427 -0.8100 0.2221
vn 0.7551 -0.5762 0.3128
vn 0.2219 -0.8003 0.5570
vn 0.3128 -0.5762 0.7551
vn 0.8901 -0.2733 0.3647
vn 0.3646 0.2934 0.8837
vn 0.9355 0.0255 0.3525
vn 0.8896 0.3030 0.3418
vn 0.3794 0.1015 0.9196
vn 0.9308 0.1021 0.3509
vn 0.0436 -0.9934 0.1058
vn 0.3814 -0.0000 0.9244
vn 0.0995 -0.9942 0.0402
vn 0.1646 0.9020 0.3990
vn 0.9230 -0.0000 0.3849
vn 0.2951 -0.6336 0.7152
vn 0.3686 0.9179 0.1469
vn 0.1347 0.9356 0.3264
vn 0.7012 -0.6588 0.2726
vn -0.1356 0.9346 -0.3287
vn 0.3318 0.9339 0.1334
vn -0.3812 0.0337 -0.9239
vn -0.4458 0.8758 -0.1848
vn -0.9238 -0.0375 -0.3810
vn -0.3701 -0.1329 -0.9194
vn -0.9039 -0.2128 -0.3711
vn -0.3825 -0.0331 -0.9234
vn -0.5657 0.7929 -0.2263
vn -0.1816 0.8808 -0.4372
vn -0.3054 0.9443 -0.1226
vn -0.7895 0.5269 -0.3148
vn -0.1998 0.8253 -0.5281
vn -0.3390 -0.4304 -0.8365
vn -0.9019 0.2238 -0.3694
vn -0.3200 0.4098 -0.8542
vn -0.3716 0.0659 -0.9261
vn -0.5427 -0.8100 -0.2221
vn -0.7551 -0.5762 -0.3128
vn -0.2219 -0.8003 -0.5570
vn -0.3128 -0.5762 -0.7551
vn -0.8901 -0.2733 -0.3647
vn -0.3646 0.2934 -0.8837
vn -0.9355 0.0255 -0.3525
vn -0.8896 0.3030 -0.3418
vn -0.3794 0.1015 -0.9196
vn -0.9308 0.1021 -0.3509
vn -0.0436 -0.9934 -0.1058
vn -0.3814 -0.0000 -0.9244
vn -0.0995 -0.9942 -0.0402
vn -0.1646 0.9020 -0.3990
vn -0.9230 -0.0000 -0.3849
vn -0.2951 -0.6336 -0.7152
vn -0.3686 0.9179 -0.1469
vn -0.1347 0.9356 -0.3264
vn -0.7012 -0.6588 -0.2726
vn 0.1356 0.9346 -0.3287
vn -0.3318 0.9339 -0.1334
vn 0.3812 0.0337 -0.9239
vn 0.4458 0.8758 -0.1848
vn 0.9238 -0.0375 -0.3810
vn 0.3701 -0.1329 -0.9194
vn 0.9039 -0.2128 -0.3711
vn 0.3825 -0.0331 -0.9234
vn 0.5657 0.7929 -0.2263
vn 0.1816 0.8808 -0.4372
vn 0.3054 0.9443 -0.1226
vn 0.7895 0.5269 -0.3148
vn 0.1998 0.8253 -0.5281
vn 0.3390 -0.4304 -0.8365
vn 0.9019 0.2238 -0.3694
vn 0.3200 0.4098 -0.8542
vn 0.3716 0.0659 -0.9261
vn 0.5427 -0.8100 -0.2221
vn 0.7551 -0.5762 -0.3128
vn 0.2219 -0.8003 -0.5570
vn 0.3128 -0.5762 -0.7551
vn 0.8901 -0.2733 -0.3647
vn 0.3646 0.2934 -0.8837
vn 0.9355 0.0255 -0.3525
vn 0.8896 0.3030 -0.3418
vn 0.3794 0.1015 -0.9196
vn 0.9308 0.1021 -0.3509
vn 0.0436 -0.9934 -0.1058
vn 0.3814 -0.0000 -0.9244
vn 0.0995 -0.9942 -0.0402
vn 0.1646 0.9020 -0.3990
vn 0.9230 -0.0000 -0.3849
vn 0.2951 -0.6336 -0.7152
vn 0.3686 0.9179 -0.1469
vn 0.1347 0.9356 -0.3264
vn 0.7012 -0.6588 -0.2726
vn -0.3814 0.0106 0.9244
vn 0.3318 0.9339 -0.1334
vn -0.3671 -0.2710 0.8898
vn 0.9278 0.0104 -0.3730
vn 0.3814 0.0106 -0.9244
vn -0.9278 0.0104 -0.3730
vn -0.3814 0.0106 -0.9244
vn 0.9278 0.0104 0.3730
vn 0.3814 0.0106 0.9244
vn -0.9278 0.0104 0.3730
vn 0.3671 -0.2710 0.8898
vn -0.8940 -0.2674 0.3594
vn -0.3671 -0.2710 -0.8898
vn 0.8940 -0.2674 0.3594
vn 0.3671 -0.2710 -0.8898
vn -0.8940 -0.2674 -0.3594
vn -0.3649 0.2908 0.8845
vn 0.8940 -0.2674 -0.3594
vn -0.2570 0.7388 0.6230
vn 0.8888 0.2869 -0.3573
vn 0.3649 0.2908 -0.8845
vn -0.8888 0.2869 -0.3573
vn -0.3649 0.2908 -0.8845
vn 0.8888 0.2869 0.3573
vn 0.3649 0.2908 0.8845
vn -0.8888 0.2869 0.3573
vn 0.6302 0.7339 -0.2534
vn 0.2570 0.7388 -0.6230
vn -0.6302 0.7339 -0.2534
vn -0.2570 0.7388 -0.6230
vn 0.6302 0.7339 0.2534
vn 0.2570 0.7388 0.6230
vn -0.6302 0.7339 0.2534
vn -0.0000 1.0000 -0.0000
vn -0.1356 0.9346 0.3287
vt 0.000000 0.000000
s 1
f 41/1/1 36/1/1 34/1/1 42/1/1
f 13/1/2 15/1/2 16/1/2 14/1/2
f 30/1/3 31/1/3 13/1/3 14/1/3
f 17/1/4 29/1/4 9/1/4 4/1/4
f 28/1/5 29/1/5 17/1/5 18/1/5
f 31/1/6 10/1/6 2/1/6 13/1/6
f 17/1/7 19/1/7 20/1/7 18/1/7
f 13/1/8 2/1/8 3/1/8 15/1/8
f 23/1/9 24/1/9 27/1/9 32/1/9
f 19/1/10 22/1/10 21/1/10 20/1/10
f 4/1/11 5/1/11 19/1/11 17/1/11
f 11/1/12 1/1/12 10/1/12 31/1/12
f 22/1/13 24/1/13 23/1/13 21/1/13
f 5/1/14 6/1/14 22/1/14 19/1/14
f 6/1/15 7/1/15 24/1/15 22/1/15
f 12/1/16 25/1/16 26/1/16 11/1/16
f 16/1/17 15/1/17 29/1/17 28/1/17
f 11/1/18 26/1/18 8/1/18 1/1/18
f 15/1/19 3/1/19 9/1/19 29/1/19
f 12/1/20 11/1/20 31/1/20 30/1/20
f 27/1/21 33/1/21 39/1/21 38/1/21
f 40/1/22 42/1/22 34/1/22 35/1/22
f 32/1/23 27/1/23 38/1/23 37/1/23
f 38/1/24 39/1/24 41/1/24 42/1/24
f 37/1/25 38/1/25 42/1/25 40/1/25
f 34/1/26 36/1/26 45/1/26 43/1/26
f 43/1/27 45/1/27 48/1/27 46/1/27
f 35/1/28 34/1/28 43/1/28 44/1/28
f 48/1/29 51/1/29 49/1/29 46/1/29
f 44/1/30 43/1/30 46/1/30 47/1/30
f 51/1/31 54/1/31 52/1/31 49/1/31
f 47/1/32 46/1/32 49/1/32 50/1/32
f 178/1/33 57/1/33 55/1/33 177/1/33
f 50/1/34 49/1/34 52/1/34 53/1/34
f 33/1/35 7/1/35 71/1/35 74/1/35
f 179/1/36 177/1/36 55/1/36 56/1/36
f 36/1/37 41/1/37 85/1/37 80/1/37
f 60/1/38 61/1/38 63/1/38 62/1/38
f 77/1/39 61/1/39 60/1/39 78/1/39
f 64/1/40 4/1/40 9/1/40 76/1/40
f 75/1/41 65/1/41 64/1/41 76/1/41
f 78/1/42 60/1/42 2/1/42 10/1/42
f 64/1/43 65/1/43 67/1/43 66/1/43
f 60/1/44 62/1/44 3/1/44 2/1/44
f 70/1/45 79/1/45 74/1/45 71/1/45
f 66/1/46 67/1/46 68/1/46 69/1/46
f 4/1/47 64/1/47 66/1/47 5/1/47
f 58/1/48 78/1/48 10/1/48 1/1/48
f 69/1/49 68/1/49 70/1/49 71/1/49
f 5/1/50 66/1/50 69/1/50 6/1/50
f 6/1/51 69/1/51 71/1/51 7/1/51
f 59/1/52 58/1/52 73/1/52 72/1/52
f 63/1/53 75/1/53 76/1/53 62/1/53
f 58/1/54 1/1/54 8/1/54 73/1/54
f 62/1/55 76/1/55 9/1/55 3/1/55
f 59/1/56 77/1/56 78/1/56 58/1/56
f 74/1/57 83/1/57 39/1/57 33/1/57
f 84/1/58 81/1/58 80/1/58 85/1/58
f 79/1/59 82/1/59 83/1/59 74/1/59
f 83/1/60 85/1/60 41/1/60 39/1/60
f 82/1/61 84/1/61 85/1/61 83/1/61
f 80/1/62 86/1/62 45/1/62 36/1/62
f 86/1/63 88/1/63 48/1/63 45/1/63
f 81/1/64 87/1/64 86/1/64 80/1/64
f 51/1/65 48/1/65 88/1/65 90/1/65
f 87/1/66 89/1/66 88/1/66 86/1/66
f 54/1/67 51/1/67 90/1/67 92/1/67
f 89/1/68 91/1/68 90/1/68 88/1/68
f 57/1/69 178/1/69 180/1/69 94/1/69
f 91/1/70 93/1/70 92/1/70 90/1/70
f 117/1/71 102/1/71 112/1/71 114/1/71
f 181/1/72 95/1/72 94/1/72 180/1/72
f 119/1/73 122/1/73 123/1/73 118/1/73
f 107/1/74 14/1/74 16/1/74 108/1/74
f 30/1/75 14/1/75 107/1/75 116/1/75
f 109/1/76 99/1/76 104/1/76 115/1/76
f 28/1/77 18/1/77 109/1/77 115/1/77
f 116/1/78 107/1/78 97/1/78 105/1/78
f 109/1/79 18/1/79 20/1/79 110/1/79
f 107/1/80 108/1/80 98/1/80 97/1/80
f 23/1/81 32/1/81 114/1/81 112/1/81
f 110/1/82 20/1/82 21/1/82 111/1/82
f 99/1/83 109/1/83 110/1/83 100/1/83
f 106/1/84 116/1/84 105/1/84 96/1/84
f 111/1/85 21/1/85 23/1/85 112/1/85
f 100/1/86 110/1/86 111/1/86 101/1/86
f 101/1/87 111/1/87 112/1/87 102/1/87
f 12/1/88 106/1/88 113/1/88 25/1/88
f 16/1/89 28/1/89 115/1/89 108/1/89
f 106/1/90 96/1/90 103/1/90 113/1/90
f 108/1/91 115/1/91 104/1/91 98/1/91
f 12/1/92 30/1/92 116/1/92 106/1/92
f 114/1/93 120/1/93 121/1/93 117/1/93
f 40/1/94 35/1/94 118/1/94 123/1/94
f 32/1/95 37/1/95 120/1/95 114/1/95
f 120/1/96 123/1/96 122/1/96 121/1/96
f 37/1/97 40/1/97 123/1/97 120/1/97
f 118/1/98 124/1/98 125/1/98 119/1/98
f 124/1/99 126/1/99 127/1/99 125/1/99
f 35/1/100 44/1/100 124/1/100 118/1/100
f 129/1/101 127/1/101 126/1/101 128/1/101
f 44/1/102 47/1/102 126/1/102 124/1/102
f 131/1/103 129/1/103 128/1/103 130/1/103
f 47/1/104 50/1/104 128/1/104 126/1/104
f 133/1/105 183/1/105 182/1/105 132/1/105
f 50/1/106 53/1/106 130/1/106 128/1/106
f 102/1/107 117/1/107 142/1/107 140/1/107
f 179/1/108 56/1/108 132/1/108 182/1/108
f 122/1/109 119/1/109 145/1/109 147/1/109
f 135/1/110 136/1/110 63/1/110 61/1/110
f 77/1/111 144/1/111 135/1/111 61/1/111
f 137/1/112 143/1/112 104/1/112 99/1/112
f 75/1/113 143/1/113 137/1/113 65/1/113
f 144/1/114 105/1/114 97/1/114 135/1/114
f 137/1/115 138/1/115 67/1/115 65/1/115
f 135/1/116 97/1/116 98/1/116 136/1/116
f 70/1/117 140/1/117 142/1/117 79/1/117
f 138/1/118 139/1/118 68/1/118 67/1/118
f 99/1/119 100/1/119 138/1/119 137/1/119
f 134/1/120 96/1/120 105/1/120 144/1/120
f 139/1/121 140/1/121 70/1/121 68/1/121
f 100/1/122 101/1/122 139/1/122 138/1/122
f 101/1/123 102/1/123 140/1/123 139/1/123
f 59/1/124 72/1/124 141/1/124 134/1/124
f 63/1/125 136/1/125 143/1/125 75/1/125
f 134/1/126 141/1/126 103/1/126 96/1/126
f 136/1/127 98/1/127 104/1/127 143/1/127
f 59/1/128 134/1/128 144/1/128 77/1/128
f 142/1/129 117/1/129 121/1/129 146/1/129
f 84/1/130 147/1/130 145/1/130 81/1/130
f 79/1/131 142/1/131 146/1/131 82/1/131
f 146/1/132 121/1/132 122/1/132 147/1/132
f 82/1/133 146/1/133 147/1/133 84/1/133
f 145/1/134 119/1/134 125/1/134 148/1/134
f 148/1/135 125/1/135 127/1/135 149/1/135
f 81/1/136 145/1/136 148/1/136 87/1/136
f 127/1/137 129/1/137 150/1/137 149/1/137
f 87/1/138 148/1/138 149/1/138 89/1/138
f 129/1/139 131/1/139 151/1/139 150/1/139
f 89/1/140 149/1/140 150/1/140 91/1/140
f 183/1/141 133/1/141 152/1/141 184/1/141
f 91/1/142 150/1/142 151/1/142 93/1/142
f 161/1/143 162/1/143 154/1/143 153/1/143
f 181/1/144 184/1/144 152/1/144 95/1/144
f 54/1/145 162/1/145 161/1/145 52/1/145
f 165/1/146 168/1/146 160/1/146 157/1/146
f 168/1/147 167/1/147 159/1/147 160/1/147
f 163/1/148 155/1/148 158/1/148 166/1/148
f 166/1/149 158/1/149 159/1/149 167/1/149
f 165/1/150 157/1/150 156/1/150 164/1/150
f 164/1/151 156/1/151 154/1/151 162/1/151
f 163/1/152 161/1/152 153/1/152 155/1/152
f 164/1/153 162/1/153 54/1/153 92/1/153
f 53/1/154 52/1/154 161/1/154 163/1/154
f 166/1/155 167/1/155 131/1/155 130/1/155
f 93/1/156 165/1/156 164/1/156 92/1/156
f 131/1/157 167/1/157 168/1/157 151/1/157
f 53/1/158 163/1/158 166/1/158 130/1/158
f 153/1/159 154/1/159 170/1/159 169/1/159
f 93/1/160 151/1/160 168/1/160 165/1/160
f 169/1/161 170/1/161 178/1/161 177/1/161
f 157/1/162 160/1/162 176/1/162 173/1/162
f 160/1/163 159/1/163 175/1/163 176/1/163
f 155/1/164 171/1/164 174/1/164 158/1/164
f 158/1/165 174/1/165 175/1/165 159/1/165
f 157/1/166 173/1/166 172/1/166 156/1/166
f 156/1/167 172/1/167 170/1/167 154/1/167
f 155/1/168 153/1/168 169/1/168 171/1/168
f 173/1/169 176/1/169 184/1/169 181/1/169
f 176/1/170 175/1/170 183/1/170 184/1/170
f 171/1/171 179/1/171 182/1/171 174/1/171
f 174/1/172 182/1/172 183/1/172 175/1/172
f 173/1/173 181/1/173 180/1/173 172/1/173
f 172/1/174 180/1/174 178/1/174 170/1/174
f 171/1/175 169/1/175 177/1/175 179/1/175
f 57/1/176 94/1/176 95/1/176 152/1/176 133/1/176 132/1/176 56/1/176 55/1/176
f 7/1/177 33/1/177 27/1/177 24/1/177
